<?xml version="1.0" encoding="utf-8"?>
<!-- Generator: Adobe Illustrator 19.1.0, SVG Export Plug-In . SVG Version: 6.00 Build 0)  -->
<svg version="1.1" id="Layer_1" xmlns="http://www.w3.org/2000/svg" xmlns:xlink="http://www.w3.org/1999/xlink" x="0px" y="0px"
	 viewBox="0 0 960 560" enable-background="new 0 0 960 560" xml:space="preserve">
<symbol  id="Circle" viewBox="-12 -11.2 24 22.5">
	<path fill="#E6E6E6" d="M11.2,0c0-6.2-5-11.2-11.2-11.2S-11.2-6.2-11.2,0s5,11.2,11.2,11.2S11.2,6.2,11.2,0z"/>
	<polygon display="none" fill="none" points="-12,11 12,11 12,-11 -12,-11 	"/>
</symbol>
<g id="Underpainting">
	<polygon fill="#EC1C24" points="544.1,350.9 548.4,366.4 530.9,360.6 519.2,361.9 447.6,369.9 447.3,298.7 442,272.6 447.4,219.4 
		429.3,143.1 415.3,146 409.6,127.9 414,115.6 492.2,99.4 548.6,106.8 550.9,122.3 548.3,137.1 537.1,135.3 544.6,217.6 519,266.9 
		522.8,279.7 543.4,348.2 544.1,350.8 	"/>
	<polygon fill="#CDBFBD" points="548.4,366.4 547.3,372.6 529.1,382.5 518.8,382.9 518.2,394.9 515.2,401.4 507.5,402.6 
		499.2,401.7 490.2,394.9 488.2,384.1 482.9,384.3 447.6,369.9 519.2,361.9 530.9,360.6 	"/>
</g>
<g id="Tube_1_">
	<g id="Tube">
		<polygon fill="#EC1C24" points="414,115.6 492.3,99.4 548.6,106.8 543.4,121 548.3,137.1 497,129 415.3,146 409.6,127.9 		"/>
		<polygon fill="#C0272D" points="497,129 537.1,135.3 494.4,215.8 		"/>
		<polygon fill="#DC1928" points="494.4,215.8 429.3,143.1 497,129 		"/>
		<polygon fill="#B10D19" points="543.4,121 548.6,106.8 550.9,122.3 548.3,137.1 		"/>
		<polygon fill="#EC1C24" points="447.4,219.4 494.4,215.8 429.3,143.1 		"/>
		<polygon fill="#F1203A" points="537.1,135.3 494.4,215.8 544.6,217.6 		"/>
		<polygon fill="#DC1928" points="447.4,219.4 494.4,215.8 442,272.6 		"/>
		<polygon fill="#F65E78" points="544.6,217.6 507.9,235.1 512.7,216.5 		"/>
		<polygon fill="#EC1C24" points="494.4,215.8 512.7,216.5 487.9,313.4 447.3,298.7 		"/>
		<polygon fill="#F83052" points="442,272.6 447.3,298.7 494.4,215.8 		"/>
		<polygon fill="#F65E78" points="487.9,313.4 519,266.9 507.9,235.1 		"/>
		<polygon fill="#DC1928" points="544.6,217.6 507.9,235.1 519,266.9 		"/>
		<polygon fill="#BD0104" points="487.9,313.4 519,266.9 530.9,360.6 		"/>
		<polygon fill="#EE4B5B" points="447.3,298.7 487.9,313.4 447.7,369.9 		"/>
		<polygon fill="#EC1C24" points="530.9,360.6 487.9,313.4 447.7,369.9 		"/>
		<polygon fill="#F88FA5" points="519,266.9 530.9,360.6 543.4,348.2 		"/>
		<polygon fill="#A49E9E" points="447.7,369.9 530.9,360.6 506.4,377.4 		"/>
		<polygon fill="#CDBFBD" points="482.9,384.3 506.4,377.4 447.7,369.9 		"/>
		<polygon fill="#F65E78" points="530.9,360.6 548.4,366.4 543.4,348.2 		"/>
		<polygon fill="#CDBFBD" points="506.4,377.4 548.4,366.4 530.9,360.6 		"/>
		<polygon fill="#CDBFBD" points="482.9,384.3 529.1,382.5 506.4,377.4 		"/>
		<polygon fill="#D8CBCA" points="548.4,366.4 547.3,372.6 529.1,382.5 506.4,377.4 		"/>
		<g>
			<polygon opacity="0.93" fill="#F2F2F0" points="519.2,361.9 512,339.8 494.4,303.7 494.4,296.3 509.4,263.5 510.7,275.6 
				520.7,280.6 522.8,279.7 544.1,350.9 541.2,350.3 530.9,360.6 			"/>
		</g>
	</g>
	<g id="Screw">
		<polygon fill="#D8CBCA" points="490.2,394.9 499.2,401.7 507.5,402.6 515.2,401.4 518.2,394.9 519.1,379 510.7,374.5 493.9,376.8 
			487.5,380.1 		"/>
		<polygon fill="#E2D4D3" points="487.5,380.1 493.9,376.8 510.7,374.5 519.1,379 518.2,394.9 516,394.9 511.3,391.3 502.4,390.5 
			495.8,392.2 493.1,394.9 490.2,394.9 		"/>
		<polygon fill="#7F7574" points="493.1,394.9 500.3,400.5 508.8,400.5 513.6,395.7 516,394.9 511.3,391.3 502.4,390.5 495.8,392.2 
					"/>
		<polygon fill="#ADA5A5" points="510.7,374.5 507.9,388.7 502.4,388.7 495.7,390.5 491.5,393.9 489.3,379.2 493.9,376.8 		"/>
	</g>
	<g id="Label_1_">
		<g>
			<path d="M487.6,328.8c0.6-0.2,1.2,0.1,1.8,1c0.5,0.7,0.9,1.6,1.2,2.6c1.3,4.5,0.3,10.2-6.7,16.3c3.5,2,5.9,2.9,7,2.7
				c2.8-0.6,4.8-1.4,5.7-2.4c0.5-0.2,0.8-0.2,1.3-0.4c1.1,0.6,1.8,1.2,2,1.9c0.4,1.1-0.2,2.1-1.7,3.2c-1.5,1-7.3,2.6-18,4.5
				c-6.1,1.1-10.4,1.6-12.9,1.6c-1.4,0-2.4-0.7-2.7-1.9c-0.2-0.8-0.1-1.7,0.3-2.8c0.4-1.1,1-1.7,1.8-1.8c0.5-0.1,0.9,0,1.1,0.3
				c0.2,0.3,0.4,0.5,0.6,0.7c0.2,0.2,2.8,0.1,7.4-0.3c3.6-0.3,6.2-0.7,7.9-1c-13.5-6.1-21-10.3-21-12.3c0-0.3,0.1-0.7,0.3-1.1
				c0.4-0.4,0.9-0.8,1.4-1.2c0.6-0.5,1.1-0.8,1.5-0.9c0.4-0.1,0.8,0,1.1,0.2c0.3,0.2,0.5,0.5,0.5,0.9c0,0.2,0,0.6-0.2,1
				c-0.1,0.1-0.1,0.1-0.1,0.2c0.2,0.7,1.7,1.8,5.1,3.5c3.4,1.8,5.7,2.7,6.6,2.5c1.9-0.4,4.3-2,6.7-4.9c2.5-3.1,3.2-5.6,2.7-7.3
				c-0.1-0.2-0.3-0.6-0.6-1.2c-0.3-0.5-0.6-1-0.6-1.4C486.7,329.8,486.9,329.1,487.6,328.8z"/>
			<path d="M483.1,312.1c3.2-1,5.1-1.7,6.3-1.9c0.7-0.1,1.1,0.4,1,1.5c-0.1,1.6-0.8,2.6-2.1,2.9c0.5,1.3,0.8,2.7,0.9,4.4
				c0.1,1.6,0,3.2-0.3,4.9c-0.4,2-1,3.2-2,3.7c-1,0.4-2.1-0.2-3.2-1.8c-1-1.5-1.7-3-1.8-4.5c-0.2-1.6-0.2-2.4-0.4-3.9
				c-0.4,0.1-0.5,0.2-0.9,0.3c-2.8,0.8-4.7,2-4.4,3.9c0.4,2.4,2,3.5,3.9,2.9c0.7-0.2,1,0.1,1.1,1c0.1,0.5,0,1.1-0.4,1.8
				c-0.3,0.7-0.7,1.1-1.2,1.2c-1.6,0.4-3.3,0-4.6-0.9c-1.3-1-2.1-2.3-2.4-4C471.7,317.8,476.8,314.2,483.1,312.1z M484.4,316.3
				c-0.4,0.2-0.6,0.7-0.6,1.6c0.2,3.8,1.1,5.5,2.3,4.9c0.6-0.3,0.8-1.3,0.7-3c-0.1-1-0.3-1.9-0.7-2.6
				C485.6,316.4,485.1,316,484.4,316.3z"/>
			<path d="M489.7,292.1c0.6,0.3,1,0.8,1,1.5c0,0.5-0.3,1.4-0.8,2.7c-0.2,0-0.3,0.1-0.5,0.1c-0.6,0.1-1.4,0.3-2.6,0.6
				c-1.2,0.3-2,0.4-2.6,0.6c-6.1,1.4-10.2,3.1-10.1,5c0,0.6,0.5,1.1,1.5,1.6c2.9,1.6,6.3,2,9.4,1.1c0.4-0.1,1.1-0.4,1.9-0.9
				c0.8-0.4,1.5-0.7,1.9-0.9c0.3-0.1,0.6,0,0.8,0.3c0.2,0.3,0.3,0.7,0.2,1.1c-0.2,1.8-1.2,2.9-2.9,3.5c-2.9,1-4.2,1.6-8.2,2.4
				c-0.3,0.1-0.7,0.1-1.2,0.1c-0.5,0-0.9,0.1-1.1,0.1c-0.4,0.1-0.9,0.3-1.6,0.5c-0.7,0.3-1.2,0.5-1.6,0.6c-0.5,0.1-1,0-1.5-0.5
				c-0.5-0.4-0.7-0.9-0.8-1.4c-0.1-0.7,0.3-1.5,1-2.4c0.8-0.1,1.1-0.2,1.9-0.3c-1.9-0.7-3-1.8-3.1-3.5c-0.1-1.1,0.2-2.4,0.8-3.8
				c0.7-1.4,1.5-2.5,2.4-3.3c2.5-1.8,6-3,9.7-3.8C486.2,292.9,487.3,292.6,489.7,292.1z"/>
			<path d="M479.9,274c4.6-0.8,6.4-1.2,7.6-1.1c0.7,0,1.2,0.7,1.5,1.9c0.4,1.9-0.1,2.8-1.5,2.9c0.9,1.5,1.6,3.1,1.9,4.9
				c0.3,1.7,0.2,3.3-0.4,4.9c-0.7,1.9-1.7,3-3.1,3.3c-1.3,0.3-2.7-0.4-4.3-2.2c-1.4-1.6-2.4-3.2-2.7-4.8c-0.3-1.6-0.5-2.5-0.8-4.2
				c-0.5,0.1-0.8,0.1-1.3,0.2c-3.9,0.7-5.8,2.1-5.3,4c0.6,2.5,2.4,3.5,5,3c0.9-0.1,1.4,0.2,1.6,1.1c0.1,0.5-0.1,1.1-0.6,1.8
				c-0.5,0.7-1,1.1-1.6,1.2c-2,0.4-3.7,0-5.4-1c-1.6-1-2.7-2.4-3.3-4.2C465.3,279.7,470.7,275.6,479.9,274z M482.5,278.8
				c-0.6,0.1-0.9,0.7-0.7,1.7c0.6,4.1,1.9,5.8,3.6,5.5c0.9-0.2,1.3-1.1,1-2.9c-0.2-1.1-0.6-2.1-1.3-3
				C484.3,279.1,483.5,278.6,482.5,278.8z"/>
			<path d="M471.1,256.8c0.4-0.4,2.1-0.9,4.1-1.5c1.7-0.5,3.2-0.8,4.2-1.1c1-0.3,2.4-0.5,3.7-0.8c1.3-0.3,1.9-0.3,2.4-0.3
				c0.9,0,1.4,0.2,1.8,0.6c0.5,0.5,1.1,1.3,1.8,2.6c0.7,1.2,1.3,2.5,1.7,3.9c0.5,1.4,0.9,3.2,1.1,5.4c0.3,2.6,0.1,4-0.6,4.1
				c-0.9,0.2-1.5-0.4-1.9-1.8c-0.2-0.6-0.2-1.1,0-1.3c0.2-0.5,0.4-0.8,0.4-1c0-0.2,0-0.7-0.2-1.6c-0.2-0.9-0.3-1.6-0.4-2
				c-0.8-3-1.7-4.5-3.5-4.4c-0.5,0-1,0.1-1.5,0.3c0.9,1.4,1.5,3.2,1.9,5.2c0.1,0.9,0.2,1.9,0.1,3c-0.1,1.1-0.3,2-0.6,2.6
				c-0.6,1.2-1.8,2-4,2.5c-2.6,0.5-6.4,0.6-10.4,0.5c-4.9-0.2-7.3-1.2-7.3-3.3c0-1.2,0.8-2.7,2.2-4.2c1.2-1.3,2.5-2.7,3.7-4.1
				c0.3-0.4,0.6-0.9,0.8-1.6C470.7,257.6,470.9,256.9,471.1,256.8z M474.3,260.1c-0.5,0.2-0.9,0.6-1.2,1.2c-3,1.5-4.6,3.2-4.5,4.9
				c0,1,1.8,1.2,5.2,0.9c2.6-0.3,4.9-0.6,6.6-0.9c3.2-0.6,3.9-1.7,3.6-3.4c-0.2-1.7-1.1-2.9-3.7-3.5
				C478.3,258.9,476.2,259.3,474.3,260.1z"/>
			<path d="M472.4,238.5c2.5-1.2,5.1-1.6,7.4-0.9c2.7,0.9,3.6,2.4,3.9,4.7c0.4,2.4,0.1,4.6-1.1,6.2c-1.1,1.5-3.4,2.4-6.1,3.7
				c-2.7,1.2-5.2,2.1-7.7,2.2c-2.9,0.1-4.6-1.3-4.9-3.7c-0.1-0.8,0-1.9,0.5-3.3C465.6,243.3,468.2,240.5,472.4,238.5z M473.3,241.4
				c-4.2,2.3-6,4.6-5.6,6.8c0.3,1.5,1.4,2.1,3.2,1.7c1.4-0.3,3-1.1,4.7-2c3.8-2,5.9-3.2,5.5-5.3c-0.3-1.4-1.5-2.3-3.3-2.4
				C476.4,240.1,474.9,240.5,473.3,241.4z"/>
			<path d="M474.6,219.3c0.9,0.9,1.4,1.6,1.5,2.1c0.1,0.4,0,0.9-0.3,1.7c-0.5,0.1-1.4,0.2-2.7,0.3c-1.1,0.1-2,0.2-2.6,0.3
				c-8.2,0.8-12.1,1.9-11.7,3c0.3,0.9,1.9,1.5,4.6,1.6c1.9,0.1,3.6,0,5.1-0.3c1.6-0.3,2.4-0.4,4.1-0.6c0.2,0,0.5-0.1,0.9-0.3
				c0.4-0.2,0.7-0.2,0.9-0.3c0.5-0.1,1,0.1,1.6,0.4c0.5,0.3,0.9,0.6,1,0.9c0.1,0.3,0,0.7-0.4,1c-0.4,0.4-0.8,0.6-1.3,0.7
				c-3.5,0.5-5,0.9-8.2,1.7c-3.3,0.8-4.9,1.4-4.7,2.1c0,0.1,0.4,0.3,1.2,0.4c3.7,1,6.7,0.5,9.9-0.4c0.5-0.1,1.1-0.4,2-0.6
				c0.9-0.3,1.6-0.4,2.1-0.5c0.6-0.1,1.3,0,1.8,0.1c0.5,0.2,0.8,0.4,1,0.8c0.2,0.4,0.1,0.8-0.2,1.1c-0.2,0.1-0.9,0.2-2.1,0.6
				c-1.1,0.3-1.8,0.6-2.3,0.7c-3.9,1.1-5.4,2.3-9.2,3.9c-0.7,0.3-1.7,0.5-3.1,0.6c-1.7,0.1-2.7-0.3-2.9-0.7c-0.2-0.5-0.1-1,0.2-1.5
				s0.9-0.8,1.5-0.9c-1.8-0.4-3.1-1.3-3.6-2.5c-0.6-1.5,0.3-2.8,2.3-4c-1.6-0.3-2.9-0.6-3.6-1c-1.3-0.6-2.1-1.4-2.5-2.4
				c-0.4-1,0-2.1,1-3.2c1.7-2.1,5.1-3.5,10.1-3.9C469.4,219.9,471.1,219.8,474.6,219.3z"/>
		</g>
	</g>
</g>
<g id="Cap_2_" display="none">
	<polygon display="inline" fill="#F2F2F0" points="487.5,387 487.5,382.9 493.1,381.3 500,380.9 512.7,380.9 519.1,382.5 
		517.4,388.2 	"/>
	<polygon display="inline" fill="#FFFEF8" points="480.6,404 492.2,407.5 508.5,407.5 520.5,405.7 526.9,404 525.6,387.9 
		515.5,383.8 502.4,383.8 490.8,385.5 480.9,389.6 	"/>
	<polygon display="inline" fill="#F2F2F0" points="482.9,388.8 482.9,402.6 495.7,399.2 510.7,398.6 515.5,383.8 502.4,383.8 
		490.8,385.5 	"/>
</g>
<g id="Glue_4_">
	<defs>
		<polygon id="Glue_mask" points="493.1,394.9 480.3,396.9 480.3,462.4 527.4,462.4 527.4,395.5 516,394.9 511.3,391.3 502.4,390.5 
			495.8,392.2 		"/>
	</defs>
	<clipPath id="Glue_mask_1_">
		<use xlink:href="#Glue_mask"  overflow="visible"/>
	</clipPath>
	<g id="Glue_1_" clip-path="url(#Glue_mask_1_)">
		<path id="Glue_2_" fill="#F4F4F4" fill-opacity="0.61" d="M509.6,415.5c-0.1,0.3,0,0.5,0.1,0.8c0,0.4,0.1,0.8,0.3,1.2
			c0.4,1.1,1.1,2.2,1.1,3.5v2.9c0,0,0,0.1,0,0.2c0,0,0.1,2.7-3,4.9c-1.1,0.8-2.7,2.9-4.6,2.9c-7.4,0-8.1-7.8-8.1-7.8
			c0-1,0.2-1.9,0.5-2.9c0-0.1,0.1-0.3,0.1-0.4c0.1-0.4,0.2-0.8,0.2-1.2c0.1-0.5,0.2-1.1,0.3-1.6c0-0.1,0-0.2,0-0.2
			c0-0.1,0-0.2,0-0.2c0-0.1,0-0.3,0.1-0.4c0-0.1,0-0.1,0-0.2c0-0.3,0.1-0.6,0.1-0.8c0-0.1,0-0.2,0-0.3c0-0.3,0-0.6,0-1
			c0-0.5,0-1.1,0-1.6c0-0.1,0-0.1,0-0.2c0-0.2,0-0.3,0-0.5c0-0.3-0.1-0.5-0.1-0.8c-0.1-0.4-0.2-0.8-0.3-1.3c0-0.1,0-0.2,0-0.4
			c0-0.2,0-0.4-0.1-0.6c0,0,0-0.1,0-0.1c0-0.1,0-0.2,0-0.3c0-0.2,0-0.4-0.1-0.5c0,0,0,0,0,0c0,0,0,0,0-0.1c0-0.1,0-0.1,0-0.2
			c0,0,0,0,0,0c0-0.1,0-0.1,0-0.2c0-0.1,0-0.2,0-0.3c0,0,0,0,0,0c0-0.1,0-0.1,0-0.2c0-0.1,0-0.3,0-0.4c0-0.1,0-0.1,0-0.2
			c0,0,0-0.1,0-0.1c0-0.1,0-0.1,0-0.2c0-0.1,0-0.1,0-0.2c0,0,0-0.1,0-0.1c0-0.1,0-0.2,0-0.4c0-0.1,0-0.1,0-0.2c0-0.1,0-0.1,0-0.2
			c0-0.1,0-0.1,0-0.2c0-0.1,0-0.1,0-0.2c0-0.5,0-1.1,0.1-1.6c0,0,0,0,0,0c0-0.1,0-0.2,0-0.3c0,0,0,0,0-0.1c0-0.1,0-0.2,0-0.3
			c0,0,0,0,0-0.1c0-0.1,0-0.2,0.1-0.3c0,0,0,0,0,0c0-0.2,0.1-0.5,0.2-0.7c0-0.5,0.2-1,0.1-1.5v0c0-0.1,0-0.1,0-0.2c0,0,0,0,0,0
			c0,0,0,0,0,0c-0.1-0.8-0.2-1.5-0.3-2.2c0-0.1,0-0.3,0-0.4c0-0.1,0-0.2,0-0.3c0-0.1,0-0.2,0-0.3v0c0-0.1,0-0.2,0-0.3
			c0-0.1,0-0.2,0-0.3c0-0.1,0-0.2,0-0.3c0-0.2,0-0.4,0-0.7c0,0,0-0.1,0-0.1c0,0,0-0.1,0-0.1c0-0.1,0-0.1,0-0.2c0,0,0,0,0,0v-0.2
			c0.1-0.1,0.1-0.3,0.1-0.4c0,0,0-0.1,0-0.1c0,0,0-0.1,0-0.1c0-0.1,0-0.2,0-0.3c0,0,0,0,0-0.1c0,0,0-0.1,0-0.1c0-0.1,0-0.3,0-0.4
			c0-0.1,0-0.2,0-0.2c0,0,0-0.1,0-0.1c0,0,0,0,0,0c-0.1-0.7-0.3-1.5-0.4-2.2c-0.1-0.3-0.1-0.6-0.1-0.9c0-0.1,0-0.1,0-0.2
			c0-0.1,0-0.1,0-0.2c0-0.1,0-0.1,0-0.2c0-0.5-0.1-0.9-0.1-1.4h15.7c0,0.4,0,0.9-0.1,1.4c-0.3,1.4-0.3,2.9-0.3,4.3
			c0,0.4,0,0.8,0.1,1.2c0,0.5,0.1,0.9,0.1,1.4c0.4,1,0.7,2.1,0.8,3.1c0.1,0.5,0.1,0.9,0.1,1.4c0,0.5,0,1,0,1.5
			c-0.2,2.7-0.1,5.4-0.9,8c-0.1,0.5-0.2,0.9-0.3,1.4C510.4,412.7,510,414.1,509.6,415.5z"/>
		<g id="Bubbles" opacity="0.43">
			
				<use xlink:href="#Circle"  width="24" height="22.5" x="-12" y="-11.2" transform="matrix(0.1144 0 0 -0.1144 506.9591 398.3172)" overflow="visible"/>
			
				<use xlink:href="#Circle"  width="24" height="22.5" x="-12" y="-11.2" transform="matrix(0.135 0 0 -0.135 506.098 404.409)" overflow="visible"/>
			
				<use xlink:href="#Circle"  width="24" height="22.5" x="-12" y="-11.2" transform="matrix(8.812522e-02 0 0 -8.812522e-02 498.7469 401.9027)" overflow="visible"/>
			
				<use xlink:href="#Circle"  width="24" height="22.5" x="-12" y="-11.2" transform="matrix(9.908789e-02 0 0 -9.908789e-02 500.9684 411.5064)" overflow="visible"/>
			
				<use xlink:href="#Circle"  width="24" height="22.5" x="-12" y="-11.2" transform="matrix(3.328560e-02 0 0 -3.328560e-02 507.2022 412.7793)" overflow="visible"/>
			
				<use xlink:href="#Circle"  width="24" height="22.5" x="-12" y="-11.2" transform="matrix(9.801336e-02 0 0 -9.801336e-02 507.0924 417.4045)" overflow="visible"/>
			
				<use xlink:href="#Circle"  width="24" height="22.5" x="-12" y="-11.2" transform="matrix(0.1115 0 0 -0.1115 506.6329 420.6124)" overflow="visible"/>
			
				<use xlink:href="#Circle"  width="24" height="22.5" x="-12" y="-11.2" transform="matrix(0.1974 0 0 -0.1974 501.8252 391.5066)" overflow="visible"/>
			
				<use xlink:href="#Circle"  width="24" height="22.5" x="-12" y="-11.2" transform="matrix(0.11 0 0 -0.11 501.1858 427.1612)" overflow="visible"/>
			
				<use xlink:href="#Circle"  width="24" height="22.5" x="-12" y="-11.2" transform="matrix(3.855382e-02 0 0 -3.855382e-02 506.3575 428.7989)" overflow="visible"/>
		</g>
	</g>
</g>
</svg>
